<svg xmlns="http://www.w3.org/2000/svg" version="1.1" xmlns:xlink="http://www.w3.org/1999/xlink" xmlns:svgjs="http://svgjs.dev/svgjs" width="2000" height="1500" viewBox="0 0 2000 1500"><rect width="2000" height="1500" fill="#040046"></rect><g transform="matrix(0.75,0,0,0.75,249.090909090909,551.4249142851677)"><svg viewBox="0 0 396 104" data-background-color="#040046" preserveAspectRatio="xMidYMid meet" height="525" width="2000" xmlns="http://www.w3.org/2000/svg" xmlns:xlink="http://www.w3.org/1999/xlink"><g id="tight-bounds" transform="matrix(1,0,0,1,0.24000000000003752,0.4490385126160277)"><svg viewBox="0 0 395.5199999999999 103.10192297476797" height="103.10192297476797" width="395.5199999999999"><g><svg viewBox="0 0 581.7909410210165 151.65798136267856" height="103.10192297476797" width="395.5199999999999"><g transform="matrix(1,0,0,1,0,2.6702924841957554)"><svg viewBox="0 0 395.52 146.31739639428704" height="146.31739639428704" width="395.52"><g id="textblocktransform"><svg viewBox="0 0 395.52 146.31739639428704" height="146.31739639428704" width="395.52" id="textblock"><g><svg viewBox="0 0 395.52 146.31739639428704" height="146.31739639428704" width="395.52"><g transform="matrix(1,0,0,1,0,0)"><svg width="395.52" viewBox="1.46 -38.09 104.27000000000001 38.580000000000005" height="146.31739639428704" data-palette-color="url(#e9737209-075c-4764-8cbe-50002ff0f9fe)"></svg></g></svg></g></svg></g></svg></g><g transform="matrix(1,0,0,1,430.0620256711777,0)"><svg viewBox="0 0 151.7289153498388 151.65798136267856" height="151.65798136267856" width="151.7289153498388"><g><svg xmlns="http://www.w3.org/2000/svg" xmlns:xlink="http://www.w3.org/1999/xlink" version="1.1" x="0" y="0" viewBox="0.7607695154586737 0.7749999999999999 30.439230484541326 30.425" enable-background="new 0 0 32 32" xml:space="preserve" height="151.65798136267856" width="151.7289153498388" class="icon-icon-0" data-fill-palette-color="accent" id="icon-0"></svg></g></svg></g></svg></g><defs></defs><mask id="9f4913d0-24fa-4d7c-9904-33f40df024fb"><g id="SvgjsG1750"><svg viewBox="0 0 395.5199999999999 103.10192297476797" height="103.10192297476797" width="395.5199999999999"><g><svg viewBox="0 0 581.7909410210165 151.65798136267856" height="103.10192297476797" width="395.5199999999999"><g transform="matrix(1,0,0,1,0,2.6702924841957554)"><svg viewBox="0 0 395.52 146.31739639428704" height="146.31739639428704" width="395.52"><g id="SvgjsG1749"><svg viewBox="0 0 395.52 146.31739639428704" height="146.31739639428704" width="395.52" id="SvgjsSvg1748"><g><svg viewBox="0 0 395.52 146.31739639428704" height="146.31739639428704" width="395.52"><g transform="matrix(1,0,0,1,0,0)"><svg width="395.52" viewBox="1.46 -38.09 104.27000000000001 38.580000000000005" height="146.31739639428704" data-palette-color="url(#e9737209-075c-4764-8cbe-50002ff0f9fe)"><path d="M14.31 0.2L14.31 0.2Q11.5 0.2 9.78-0.23 8.06-0.66 7.17-1.61 6.27-2.56 5.96-4.17 5.64-5.79 5.64-8.15L5.64-8.15 5.64-23.71 1.46-23.71 1.59-26.17 5.76-26.39 6.4-33.54 10.08-33.81 10.08-26.42 17.11-26.42 17.11-23.71 10.08-23.71 10.08-8.13Q10.08-6.05 10.31-4.98 10.55-3.91 11.45-3.5 12.35-3.1 14.31-3.03L14.31-3.03Q14.97-3 15.63-2.98 16.28-2.95 16.94-2.93L16.94-2.93 16.75 0.2Q16.14 0.2 15.53 0.2 14.92 0.2 14.31 0.2ZM34.08 0.49L34.08 0.49Q30.25 0.49 27.57-1.23 24.9-2.95 23.51-6.04 22.12-9.13 22.12-13.23L22.12-13.23Q22.12-17.43 23.48-20.52 24.85-23.61 27.52-25.31 30.2-27 34.08-27L34.08-27Q37.96-27 40.62-25.31 43.28-23.61 44.65-20.52 46.02-17.43 46.02-13.23L46.02-13.23Q46.02-9.13 44.63-6.04 43.23-2.95 40.57-1.23 37.91 0.49 34.08 0.49ZM34.08-2.81L34.08-2.81Q36.67-2.81 38.29-4.16 39.91-5.52 40.68-7.86 41.45-10.21 41.45-13.21L41.45-13.21Q41.45-16.28 40.68-18.64 39.91-21 38.28-22.34 36.64-23.68 34.08-23.68L34.08-23.68Q30.22-23.68 28.45-20.75 26.68-17.82 26.68-13.21L26.68-13.21Q26.68-10.21 27.45-7.86 28.22-5.52 29.86-4.16 31.49-2.81 34.08-2.81ZM63.15 0.49L63.15 0.49Q59.44 0.49 56.9-1.26 54.37-3 53.07-6.1 51.78-9.2 51.78-13.28L51.78-13.28Q51.78-17.41 53.13-20.47 54.49-23.54 57.04-25.23 59.59-26.93 63.13-26.93L63.13-26.93Q65.67-26.93 67.41-26.17 69.16-25.42 70.28-24.22L70.28-24.22 70.16-28.15 70.16-37.6 74.75-38.09 74.75 0 70.92 0 70.67-2.88Q69.23-1.17 67.19-0.34 65.16 0.49 63.15 0.49ZM63.62-2.81L63.62-2.81Q65.69-2.81 67.41-3.5 69.14-4.2 70.31-5.62L70.31-5.62 70.31-20.63Q69.28-22.12 67.51-22.9 65.74-23.68 63.59-23.68L63.59-23.68Q61.76-23.68 60.41-22.99 59.05-22.29 58.15-20.96 57.25-19.63 56.79-17.71 56.34-15.8 56.34-13.35L56.34-13.35Q56.34-10.03 57.12-7.68 57.91-5.32 59.53-4.06 61.15-2.81 63.62-2.81ZM93.79 0.49L93.79 0.49Q89.96 0.49 87.28-1.23 84.61-2.95 83.22-6.04 81.83-9.13 81.83-13.23L81.83-13.23Q81.83-17.43 83.2-20.52 84.56-23.61 87.24-25.31 89.91-27 93.79-27L93.79-27Q97.67-27 100.33-25.31 103-23.61 104.36-20.52 105.73-17.43 105.73-13.23L105.73-13.23Q105.73-9.13 104.34-6.04 102.95-2.95 100.29-1.23 97.62 0.49 93.79 0.49ZM93.79-2.81L93.79-2.81Q96.38-2.81 98-4.16 99.63-5.52 100.4-7.86 101.16-10.21 101.16-13.21L101.16-13.21Q101.16-16.28 100.4-18.64 99.63-21 97.99-22.34 96.35-23.68 93.79-23.68L93.79-23.68Q89.93-23.68 88.16-20.75 86.39-17.82 86.39-13.21L86.39-13.21Q86.39-10.21 87.16-7.86 87.93-5.52 89.57-4.16 91.2-2.81 93.79-2.81Z" opacity="1" transform="matrix(1,0,0,1,0,0)" fill="white" class="wordmark-text-0" id="SvgjsPath1747"></path></svg></g></svg></g></svg></g></svg></g><g transform="matrix(1,0,0,1,430.0620256711777,0)"><svg viewBox="0 0 151.7289153498388 151.65798136267856" height="151.65798136267856" width="151.7289153498388"><g><svg xmlns="http://www.w3.org/2000/svg" xmlns:xlink="http://www.w3.org/1999/xlink" version="1.1" x="0" y="0" viewBox="0.7607695154586737 0.7749999999999999 30.439230484541326 30.425" enable-background="new 0 0 32 32" xml:space="preserve" height="151.65798136267856" width="151.7289153498388" class="icon-icon-0" data-fill-palette-color="accent" id="SvgjsSvg1746"><g fill="black"><g fill="black"><path fill="black" d="M1.5 31.2C1.3 31.2 1.1 31.1 1 31 0.8 30.8 0.7 30.6 0.8 30.3L4.5 11.2C4.6 10.9 4.8 10.6 5.1 10.6L14.7 9.3C14.9 9.3 15.2 9.3 15.3 9.5L22.5 16.7C22.7 16.9 22.7 17.1 22.7 17.3L21.4 26.9C21.4 27.2 21.1 27.5 20.8 27.5L1.6 31.2zM5.8 12.1L2.4 29.6 19.9 26.2 21.1 17.5 14.4 10.8z"></path></g><g fill="black"><rect x="5.2" y="19.8" transform="matrix(-0.7071 -0.7071 0.7071 -0.7071 -8.3465 48.7211)" fill="black" width="1.5" height="12.6"></rect></g><g fill="black"><path fill="black" d="M12 23.1C11.2 23.1 10.4 22.8 9.8 22.2S8.9 20.9 8.9 20C8.9 19.2 9.2 18.4 9.8 17.8 11 16.6 13 16.6 14.1 17.8 15.3 19 15.3 20.9 14.1 22.1 13.6 22.8 12.8 23.1 12 23.1M12 18.4C11.6 18.4 11.2 18.6 10.9 18.9S10.4 19.6 10.4 20 10.6 20.8 10.9 21.1C11.5 21.7 12.5 21.7 13.1 21.1S13.7 19.5 13.1 18.9C12.8 18.6 12.4 18.4 12 18.4"></path></g><g fill="black"><path fill="black" d="M23.8 18.7C22.9 18.7 22 18.3 21.4 17.7L14.3 10.6C13 9.3 13 7.1 14.3 5.8L19.1 1C19.4 0.7 19.9 0.7 20.2 1L31 11.8C31.1 11.9 31.2 12.1 31.2 12.3S31.1 12.7 31 12.8L26.1 17.7C25.5 18.4 24.7 18.7 23.8 18.7M19.7 2.6L15.4 6.9C14.7 7.6 14.7 8.9 15.4 9.6L22.5 16.7C23.2 17.4 24.5 17.4 25.2 16.7L29.5 12.4z"></path></g></g></svg></g></svg></g></svg></g><defs><mask></mask></defs></svg><rect width="395.5199999999999" height="103.10192297476797" fill="black" stroke="none" visibility="hidden"></rect></g></mask><linearGradient x1="0" x2="1" y1="0.578" y2="0.595" id="e9737209-075c-4764-8cbe-50002ff0f9fe"><stop stop-color="#6ee2f5" offset="0"></stop><stop stop-color="#6454f0" offset="1"></stop></linearGradient><rect width="395.5199999999999" height="103.10192297476797" fill="url(#e9737209-075c-4764-8cbe-50002ff0f9fe)" mask="url(#9f4913d0-24fa-4d7c-9904-33f40df024fb)" data-fill-palette-color="primary"></rect><mask id="06100339-3470-4c0f-8768-26c80cad7df9"><g id="SvgjsG1769"><svg viewBox="0 0 395.5199999999999 103.10192297476797" height="103.10192297476797" width="395.5199999999999"><g><svg viewBox="0 0 581.7909410210165 151.65798136267856" height="103.10192297476797" width="395.5199999999999"><g transform="matrix(1,0,0,1,0,2.6702924841957554)"><svg viewBox="0 0 395.52 146.31739639428704" height="146.31739639428704" width="395.52"><g id="SvgjsG1768"><svg viewBox="0 0 395.52 146.31739639428704" height="146.31739639428704" width="395.52" id="SvgjsSvg1767"><g><svg viewBox="0 0 395.52 146.31739639428704" height="146.31739639428704" width="395.52"><g transform="matrix(1,0,0,1,0,0)"><svg width="395.52" viewBox="1.46 -38.09 104.27000000000001 38.580000000000005" height="146.31739639428704" data-palette-color="url(#e9737209-075c-4764-8cbe-50002ff0f9fe)"></svg></g></svg></g></svg></g></svg></g><g transform="matrix(1,0,0,1,430.0620256711777,0)"><svg viewBox="0 0 151.7289153498388 151.65798136267856" height="151.65798136267856" width="151.7289153498388"><g><svg xmlns="http://www.w3.org/2000/svg" xmlns:xlink="http://www.w3.org/1999/xlink" version="1.1" x="0" y="0" viewBox="0.7607695154586737 0.7749999999999999 30.439230484541326 30.425" enable-background="new 0 0 32 32" xml:space="preserve" height="151.65798136267856" width="151.7289153498388" class="icon-icon-0" data-fill-palette-color="accent" id="SvgjsSvg1766"><g fill="white"><g fill="white"><path fill="white" d="M1.5 31.2C1.3 31.2 1.1 31.1 1 31 0.8 30.8 0.7 30.6 0.8 30.3L4.5 11.2C4.6 10.9 4.8 10.6 5.1 10.6L14.7 9.3C14.9 9.3 15.2 9.3 15.3 9.5L22.5 16.7C22.7 16.9 22.7 17.1 22.7 17.3L21.4 26.9C21.4 27.2 21.1 27.5 20.8 27.5L1.6 31.2zM5.8 12.1L2.4 29.6 19.9 26.2 21.1 17.5 14.4 10.8z"></path></g><g fill="white"><rect x="5.2" y="19.8" transform="matrix(-0.7071 -0.7071 0.7071 -0.7071 -8.3465 48.7211)" fill="white" width="1.5" height="12.6"></rect></g><g fill="white"><path fill="white" d="M12 23.1C11.2 23.1 10.4 22.8 9.8 22.2S8.9 20.9 8.9 20C8.9 19.2 9.2 18.4 9.8 17.8 11 16.6 13 16.6 14.1 17.8 15.3 19 15.3 20.9 14.1 22.1 13.6 22.8 12.8 23.1 12 23.1M12 18.4C11.6 18.4 11.2 18.6 10.9 18.9S10.4 19.6 10.4 20 10.6 20.8 10.9 21.1C11.5 21.7 12.5 21.7 13.1 21.1S13.7 19.5 13.1 18.9C12.8 18.6 12.4 18.4 12 18.4"></path></g><g fill="white"><path fill="white" d="M23.8 18.7C22.9 18.7 22 18.3 21.4 17.7L14.3 10.6C13 9.3 13 7.1 14.3 5.8L19.1 1C19.4 0.7 19.9 0.7 20.2 1L31 11.8C31.1 11.9 31.2 12.1 31.2 12.3S31.1 12.7 31 12.8L26.1 17.7C25.5 18.4 24.7 18.7 23.8 18.7M19.7 2.6L15.4 6.9C14.7 7.6 14.7 8.9 15.4 9.6L22.5 16.7C23.2 17.4 24.5 17.4 25.2 16.7L29.5 12.4z"></path></g></g></svg></g></svg></g></svg></g><defs><mask></mask></defs><mask><g id="SvgjsG1765"><svg viewBox="0 0 395.5199999999999 103.10192297476797" height="103.10192297476797" width="395.5199999999999"><g><svg viewBox="0 0 581.7909410210165 151.65798136267856" height="103.10192297476797" width="395.5199999999999"><g transform="matrix(1,0,0,1,0,2.6702924841957554)"><svg viewBox="0 0 395.52 146.31739639428704" height="146.31739639428704" width="395.52"><g id="SvgjsG1764"><svg viewBox="0 0 395.52 146.31739639428704" height="146.31739639428704" width="395.52" id="SvgjsSvg1763"><g><svg viewBox="0 0 395.52 146.31739639428704" height="146.31739639428704" width="395.52"><g transform="matrix(1,0,0,1,0,0)"><svg width="395.52" viewBox="1.46 -38.09 104.27000000000001 38.580000000000005" height="146.31739639428704" data-palette-color="url(#e9737209-075c-4764-8cbe-50002ff0f9fe)"><path d="M14.31 0.2L14.31 0.2Q11.5 0.2 9.78-0.23 8.06-0.66 7.17-1.61 6.27-2.56 5.96-4.17 5.64-5.79 5.64-8.15L5.64-8.15 5.64-23.71 1.46-23.71 1.59-26.17 5.76-26.39 6.4-33.54 10.08-33.81 10.08-26.42 17.11-26.42 17.11-23.71 10.08-23.71 10.08-8.13Q10.08-6.05 10.31-4.98 10.55-3.91 11.45-3.5 12.35-3.1 14.31-3.03L14.31-3.03Q14.97-3 15.63-2.98 16.28-2.95 16.94-2.93L16.94-2.93 16.75 0.2Q16.14 0.2 15.53 0.2 14.92 0.2 14.31 0.2ZM34.08 0.49L34.08 0.49Q30.25 0.49 27.57-1.23 24.9-2.95 23.51-6.04 22.12-9.13 22.12-13.23L22.12-13.23Q22.12-17.43 23.48-20.52 24.85-23.61 27.52-25.31 30.2-27 34.08-27L34.08-27Q37.96-27 40.62-25.31 43.28-23.61 44.65-20.52 46.02-17.43 46.02-13.23L46.02-13.23Q46.02-9.13 44.63-6.04 43.23-2.95 40.57-1.23 37.91 0.49 34.08 0.49ZM34.08-2.81L34.08-2.81Q36.67-2.81 38.29-4.16 39.91-5.52 40.68-7.86 41.45-10.21 41.45-13.21L41.45-13.21Q41.45-16.28 40.68-18.64 39.91-21 38.28-22.34 36.64-23.68 34.08-23.68L34.08-23.68Q30.22-23.68 28.45-20.75 26.68-17.82 26.68-13.21L26.68-13.21Q26.68-10.21 27.45-7.86 28.22-5.52 29.86-4.16 31.49-2.81 34.08-2.81ZM63.15 0.49L63.15 0.49Q59.44 0.49 56.9-1.26 54.37-3 53.07-6.1 51.78-9.2 51.78-13.28L51.78-13.28Q51.78-17.41 53.13-20.47 54.49-23.54 57.04-25.23 59.59-26.93 63.13-26.93L63.13-26.93Q65.67-26.93 67.41-26.17 69.16-25.42 70.28-24.22L70.28-24.22 70.16-28.15 70.16-37.6 74.75-38.09 74.75 0 70.92 0 70.67-2.88Q69.23-1.17 67.19-0.34 65.16 0.49 63.15 0.49ZM63.62-2.81L63.62-2.81Q65.69-2.81 67.41-3.5 69.14-4.2 70.31-5.62L70.31-5.62 70.31-20.63Q69.28-22.12 67.51-22.9 65.74-23.68 63.59-23.68L63.59-23.68Q61.76-23.68 60.41-22.99 59.05-22.29 58.15-20.96 57.25-19.63 56.79-17.71 56.34-15.8 56.34-13.35L56.34-13.35Q56.34-10.03 57.12-7.68 57.91-5.32 59.53-4.06 61.15-2.81 63.62-2.81ZM93.79 0.49L93.79 0.49Q89.96 0.49 87.28-1.23 84.61-2.95 83.22-6.04 81.83-9.13 81.83-13.23L81.83-13.23Q81.83-17.43 83.2-20.52 84.56-23.61 87.24-25.31 89.91-27 93.79-27L93.79-27Q97.67-27 100.33-25.31 103-23.61 104.36-20.52 105.73-17.43 105.73-13.23L105.73-13.23Q105.73-9.13 104.34-6.04 102.95-2.95 100.29-1.23 97.62 0.49 93.79 0.49ZM93.79-2.81L93.79-2.81Q96.38-2.81 98-4.16 99.63-5.52 100.4-7.86 101.16-10.21 101.16-13.21L101.16-13.21Q101.16-16.28 100.4-18.64 99.63-21 97.99-22.34 96.35-23.68 93.79-23.68L93.79-23.68Q89.93-23.68 88.16-20.75 86.39-17.82 86.39-13.21L86.39-13.21Q86.39-10.21 87.16-7.86 87.93-5.52 89.57-4.16 91.2-2.81 93.79-2.81Z" opacity="1" transform="matrix(1,0,0,1,0,0)" fill="black" class="wordmark-text-0" id="SvgjsPath1762"></path></svg></g></svg></g></svg></g></svg></g><g transform="matrix(1,0,0,1,430.0620256711777,0)"><svg viewBox="0 0 151.7289153498388 151.65798136267856" height="151.65798136267856" width="151.7289153498388"><g><svg xmlns="http://www.w3.org/2000/svg" xmlns:xlink="http://www.w3.org/1999/xlink" version="1.1" x="0" y="0" viewBox="0.7607695154586737 0.7749999999999999 30.439230484541326 30.425" enable-background="new 0 0 32 32" xml:space="preserve" height="151.65798136267856" width="151.7289153498388" class="icon-icon-0" data-fill-palette-color="accent" id="SvgjsSvg1761"><g fill="black"><g fill="black"><path fill="black" d="M1.5 31.2C1.3 31.2 1.1 31.1 1 31 0.8 30.8 0.7 30.6 0.8 30.3L4.5 11.2C4.6 10.9 4.8 10.6 5.1 10.6L14.7 9.3C14.9 9.3 15.2 9.3 15.3 9.5L22.5 16.7C22.7 16.9 22.7 17.1 22.7 17.3L21.4 26.9C21.4 27.2 21.1 27.5 20.8 27.5L1.6 31.2zM5.8 12.1L2.4 29.6 19.9 26.2 21.1 17.5 14.4 10.8z"></path></g><g fill="black"><rect x="5.2" y="19.8" transform="matrix(-0.7071 -0.7071 0.7071 -0.7071 -8.3465 48.7211)" fill="black" width="1.5" height="12.6"></rect></g><g fill="black"><path fill="black" d="M12 23.1C11.2 23.1 10.4 22.8 9.8 22.2S8.9 20.9 8.9 20C8.9 19.2 9.2 18.4 9.8 17.8 11 16.6 13 16.6 14.1 17.8 15.3 19 15.3 20.9 14.1 22.1 13.6 22.8 12.8 23.1 12 23.1M12 18.4C11.6 18.4 11.2 18.6 10.9 18.9S10.4 19.6 10.4 20 10.6 20.8 10.9 21.1C11.5 21.7 12.5 21.7 13.1 21.1S13.7 19.5 13.1 18.9C12.8 18.6 12.4 18.4 12 18.4"></path></g><g fill="black"><path fill="black" d="M23.8 18.7C22.9 18.7 22 18.3 21.4 17.7L14.3 10.6C13 9.3 13 7.1 14.3 5.8L19.1 1C19.4 0.7 19.9 0.7 20.2 1L31 11.8C31.1 11.9 31.2 12.1 31.2 12.3S31.1 12.7 31 12.8L26.1 17.7C25.5 18.4 24.7 18.7 23.8 18.7M19.7 2.6L15.4 6.9C14.7 7.6 14.7 8.9 15.4 9.6L22.5 16.7C23.2 17.4 24.5 17.4 25.2 16.7L29.5 12.4z"></path></g></g></svg></g></svg></g></svg></g><defs><mask></mask></defs></svg><rect width="395.5199999999999" height="103.10192297476797" fill="black" stroke="none" visibility="hidden"></rect></g></mask></svg><rect width="395.5199999999999" height="103.10192297476797" fill="black" stroke="none" visibility="hidden"></rect></g></mask><linearGradient x1="0" x2="1" y1="0.578" y2="0.595" id="1f648f47-2287-4a91-be33-cf7f7a6a7803"><stop stop-color="#6ee2f5" offset="0"></stop><stop stop-color="#6454f0" offset="1"></stop></linearGradient><rect width="395.5199999999999" height="103.10192297476797" fill="url(#1f648f47-2287-4a91-be33-cf7f7a6a7803)" mask="url(#06100339-3470-4c0f-8768-26c80cad7df9)" data-fill-palette-color="accent"></rect></svg><rect width="395.5199999999999" height="103.10192297476797" fill="none" stroke="none" visibility="hidden"></rect></g></svg></g></svg>